<?xml version="1.0" encoding="utf-8"?>
<!-- Generator: Adobe Illustrator 27.0.0, SVG Export Plug-In . SVG Version: 6.00 Build 0)  -->
<svg version="1.1" id="Layer_1" xmlns="http://www.w3.org/2000/svg" xmlns:xlink="http://www.w3.org/1999/xlink" x="0px" y="0px"
	 viewBox="0 0 600 600" style="enable-background:new 0 0 600 600;" xml:space="preserve">
<style type="text/css">
	.st0{fill:url(#SVGID_1_);}
	.st1{fill:url(#SVGID_00000158718891881379574440000010946764972687580853_);}
</style>
<linearGradient id="SVGID_1_" gradientUnits="userSpaceOnUse" x1="300.7076" y1="1160.59" x2="301.2876" y2="570.24" gradientTransform="matrix(1 0 0 1 -1 -563)">
	<stop  offset="0" style="stop-color:#D9D9D9"/>
	<stop  offset="1" style="stop-color:#FFFFFF"/>
</linearGradient>
<path class="st0" d="M137.7,0h324.6C538.2-0.2,599.8,61.2,600,137.1c0,0,0,0,0,0l0,0v325.2c0.2,75.9-61.2,137.5-137.1,137.7
	c0,0,0,0,0,0H137.7C61.8,600.2,0.2,538.8,0,462.9c0,0,0,0,0,0l0,0V137.7C-0.2,61.8,61.2,0.2,137.1,0c0,0,0,0,0,0H137.7L137.7,0z"/>
<linearGradient id="SVGID_00000102537448827597116700000005499345031461585568_" gradientUnits="userSpaceOnUse" x1="303.8509" y1="431.4" x2="303.8509" y2="178.3" gradientTransform="matrix(1 0 0 -1 0 602)">
	<stop  offset="0" style="stop-color:#70EFFF"/>
	<stop  offset="1" style="stop-color:#5770FF"/>
</linearGradient>
<path style="fill:url(#SVGID_00000102537448827597116700000005499345031461585568_);" d="M131.5,170.6c-3.1,0-6.1,0.6-9,1.7
	l56.5,58.1l57,59.2l1.1,1.2l1.6,1.7l1.7,1.7l3.3,3.5l49,50.2c0.8,0.5,3.2,2.7,5,3.6c2.3,1.3,4.9,2.1,7.6,2.4c2.9,0,5.8-0.6,8.4-2
	c1.9-0.9,2.8-2.2,5-4l56.7-58.5l57.3-59l55.2-56.9c-3.6-1.9-7.6-2.9-11.7-2.9L131.5,170.6z M114.2,177.7c-6.1,5.7-9.8,14.3-9.8,24
	v190.8c-0.1,7.3,2.3,14.5,6.6,20.4l8-7.5l58.9-57.3l52.3-50.6l-1-1.3l-57.3-58.9l-57.3-59.2L114.2,177.7z M495.4,179.6l-55.8,57.7
	l-57.1,58.9l-1,1.1l54.3,52.7l59,57.3l3.5,3.3c3.3-5.4,5.1-11.7,5-18.1V201.7C503.4,193.6,500.6,185.8,495.4,179.6L495.4,179.6z
	 M236.9,304.4L184.8,355l-59.2,57.3l-7.5,7.3c4,2.6,8.6,4,13.4,4.1h344.7c5.7-0.1,11.3-2.1,15.7-5.8l-3.8-3.7L429,356.9l-54.4-52.5
	l-49,50.4c-2.6,1.7-4.4,3.7-7,4.9c-4.1,1.9-8.7,3.5-13.3,3.5s-9.1-1.9-13.2-3.9c-2.1-1-3.2-2.1-5.6-4.1L236.9,304.4z"/>
</svg>
