<?xml version="1.0" encoding="utf-8"?>
<!-- Generator: Adobe Illustrator 27.0.0, SVG Export Plug-In . SVG Version: 6.00 Build 0)  -->
<svg version="1.1" id="Layer_1" xmlns="http://www.w3.org/2000/svg" xmlns:xlink="http://www.w3.org/1999/xlink" x="0px" y="0px"
	 viewBox="0 0 990.8 1000" style="enable-background:new 0 0 990.8 1000;" xml:space="preserve">
<style type="text/css">
	.st0{fill:url(#SVGID_1_);}
	.st1{fill:url(#SVGID_00000124851156254096993360000016407528881654076050_);}
	.st2{opacity:5.000000e-02;fill-rule:evenodd;clip-rule:evenodd;enable-background:new    ;}
	.st3{opacity:0.1;fill-rule:evenodd;clip-rule:evenodd;enable-background:new    ;}
	.st4{fill:url(#SVGID_00000168099189329267324310000010844249900310100651_);}
	.st5{fill-rule:evenodd;clip-rule:evenodd;fill:#FFFFFF;}
</style>
<g transform="translate(-381.7262001,-337.1428572)">
	
		<linearGradient id="SVGID_1_" gradientUnits="userSpaceOnUse" x1="208.7291" y1="1223.5173" x2="211.4613" y2="1206.2684" gradientTransform="matrix(33.3333 0 0 -33.3333 -6329.48 41124.5703)">
		<stop  offset="1.200000e-02" style="stop-color:#00B7F0"/>
		<stop  offset="0.339" style="stop-color:#009DE5"/>
		<stop  offset="0.755" style="stop-color:#0082D9"/>
		<stop  offset="1" style="stop-color:#0078D4"/>
	</linearGradient>
	<path class="st0" d="M965.7,628.1c0,160.7-130.7,291-292,291l0,0c-161.2,0-292-130.3-292-291l0,0c0-160.7,130.7-291,292-291
		c0,0,0,0,0,0C834.9,337.1,965.7,467.4,965.7,628.1L965.7,628.1"/>
	
		<linearGradient id="SVGID_00000113331639507375771580000016929617624755296129_" gradientUnits="userSpaceOnUse" x1="214.7159" y1="1197.978" x2="229.8825" y2="1206.7338" gradientTransform="matrix(33.3333 0 0 -33.3333 -6329.48 41124.5703)">
		<stop  offset="0" style="stop-color:#0078D4"/>
		<stop  offset="0.37" style="stop-color:#007AD5"/>
		<stop  offset="0.573" style="stop-color:#0082D9"/>
		<stop  offset="0.735" style="stop-color:#0090DF"/>
		<stop  offset="0.875" style="stop-color:#00A3E7"/>
		<stop  offset="1" style="stop-color:#00BCF2"/>
	</linearGradient>
	<path style="fill:url(#SVGID_00000113331639507375771580000016929617624755296129_);" d="M1372.6,1046
		c0,160.8-130.8,291.1-292.1,291.1S788.4,1206.8,788.4,1046s130.8-291.1,292.1-291.1S1372.6,885.3,1372.6,1046L1372.6,1046"/>
	<path class="st2" d="M382.8,653C396,813.7,537.1,933.2,697.7,920S977.9,765.7,964.7,605C953.3,467.4,847.1,356.5,710,339.4
		C559.5,389.7,439.5,504.8,382.8,653L382.8,653z"/>
	<path class="st2" d="M1371.8,1025.1c-11-160.9-150.4-282.4-311.3-271.4c-160.9,11-282.4,150.4-271.4,311.3
		c9.8,143.1,122.1,257.9,264.9,270.9C1200.3,1283.8,1316.5,1170.2,1371.8,1025.1L1371.8,1025.1z"/>
	<path class="st3" d="M396.5,719.6c50.1,153.2,214.9,236.8,368.1,186.7c153.2-50.1,236.8-214.9,186.7-368.1
		c-27.5-84.2-91.9-151.4-174.8-182.5C590.6,394.4,443.1,535.6,396.5,719.6L396.5,719.6z"/>
	<path class="st3" d="M1358.5,956.7c-48.9-153.6-213.1-238.5-366.7-189.6C838.2,816,753.3,980.2,802.2,1133.8
		c28,88,96,157.5,183.3,187.5C1168.8,1280.2,1313.2,1139.1,1358.5,956.7L1358.5,956.7z"/>
	<path class="st3" d="M407.2,747.2c65.4,147.3,237.8,213.7,385,148.3s213.7-237.8,148.3-385c-27.6-62.1-76-112.7-136.9-143
		C605,398.4,446.7,550,407.2,747.2z"/>
	<path class="st3" d="M1347.8,928.6c-64.5-147.7-236.5-215.2-384.3-150.7s-215.2,236.5-150.7,384.3c28.5,65.3,79.9,117.9,144.6,148
		C1154.2,1276.6,1309.7,1124.6,1347.8,928.6L1347.8,928.6z"/>
	
		<linearGradient id="SVGID_00000176040245415821506250000017147383073623787435_" gradientUnits="userSpaceOnUse" x1="210.7867" y1="1217.9342" x2="224.6277" y2="1193.9613" gradientTransform="matrix(33.3333 0 0 -33.3333 -6329.48 41124.5703)">
		<stop  offset="0" style="stop-color:#00B7F0"/>
		<stop  offset="1" style="stop-color:#007CC1"/>
	</linearGradient>
	<path style="fill:url(#SVGID_00000176040245415821506250000017147383073623787435_);" d="M1339.6,839.3
		c0,254.5-207,460.9-462.4,460.9l0,0c-255.4,0-462.4-206.4-462.4-460.9c0,0,0,0,0,0c0-254.5,207-460.9,462.4-460.9c0,0,0,0,0,0
		C1132.6,378.4,1339.6,584.8,1339.6,839.3L1339.6,839.3"/>
	<path class="st5" d="M747.2,823.3c-18.7-12.3-34.3-28.7-45.6-48.1c-10.9-20.4-16.3-43.3-15.6-66.4c-0.8-29.3,9.2-58,28.1-80.4
		c19.7-22.5,45-39.4,73.3-49c30.8-10.9,63.3-16.4,96-16.2c21.4-0.2,42.8,1.4,63.9,4.9c15.1,2.3,29.9,6.2,44.3,11.4
		c13.2,4.5,25.1,12.1,34.7,22.1c7.1,8.3,10.9,18.9,10.7,29.8c0.5,11.4-3.5,22.6-11.3,31c-7.3,7.8-17.6,12.1-28.3,11.8
		c-7.3-0.1-14.4-1.7-21-4.7c-16.3-7.3-33-13.4-50.1-18.3c-15.7-4.2-32-6.2-48.3-6c-21.2-0.8-42.2,4.6-60.5,15.5
		c-15.7,9.5-24.9,26.8-24.1,45.2c-0.1,11.8,4.4,23.2,12.5,31.8c9.7,10.1,21.1,18.2,33.8,24.2c14.2,7,35.3,16.3,63.3,27.9
		c3.1,1,6.1,2.2,9.1,3.6c27.4,10.8,53.6,24.3,78.4,40.3c19.5,12.7,36,29.7,48.3,49.5c12,20.9,18.1,44.7,17.4,68.8
		c1,29.5-7.4,58.6-24.1,82.9c-17,23.1-40.5,40.5-67.5,50.1c-32.5,11.6-66.9,17.2-101.5,16.5c-47.5,1.7-94.7-7.3-138.3-26.2
		c-11.1-5-20.9-12.6-28.5-22.1c-6.3-8.8-9.5-19.4-9.3-30.1c-0.6-11.5,3.8-22.7,12.2-30.7c8.6-7.6,19.9-11.5,31.4-11.1
		c12.8,0.2,25.4,3.4,36.7,9.4c14,7,25.1,12.3,33.2,15.8c9.3,3.9,18.9,6.9,28.7,9.1c12.1,2.7,24.5,3.9,36.8,3.8
		c21.9,1.6,43.7-4.2,61.9-16.5c13.8-10.8,21.6-27.7,20.9-45.2c0-12.3-4.7-24.1-13.1-33c-11.1-11.5-24.1-20.9-38.5-28
		c-17-8.9-40.8-19.8-71.5-32.7C798.2,853.2,771.9,839.5,747.2,823.3"/>
</g>
</svg>
